<?xml version="1.0" standalone="no"?>
<!DOCTYPE svg PUBLIC "-//W3C//DTD SVG 20010904//EN"
 "http://www.w3.org/TR/2001/REC-SVG-20010904/DTD/svg10.dtd">
<svg version="1.0" xmlns="http://www.w3.org/2000/svg"
 width="650.000000pt" height="650.000000pt" viewBox="0 0 650.000000 650.000000"
 preserveAspectRatio="xMidYMid meet">
<metadata>
Created by potrace 1.14, written by Peter Selinger 2001-2017
</metadata>
<g transform="translate(0.000000,650.000000) scale(0.100000,-0.100000)"
fill="#000000" stroke="none">
<path d="M3350 6296 c-184 -65 -321 -155 -494 -325 -199 -196 -319 -346 -446
-559 -123 -208 -176 -341 -237 -592 -28 -119 -36 -171 -40 -291 l-6 -146 -101
-38 c-243 -89 -565 -326 -784 -575 -164 -187 -332 -491 -397 -720 -72 -252
-78 -288 -84 -520 l-6 -215 -145 -98 c-149 -100 -275 -193 -320 -237 -59 -56
-63 -213 -16 -552 42 -302 109 -429 338 -642 205 -190 291 -249 553 -381 122
-62 230 -108 335 -143 250 -82 313 -92 620 -99 397 -9 563 13 871 111 200 64
295 108 499 231 200 120 254 160 380 281 60 57 114 104 119 104 6 0 25 13 44
30 l34 29 105 -79 c131 -98 229 -202 268 -286 30 -61 30 -64 15 -100 -8 -20
-15 -65 -15 -101 0 -55 3 -67 26 -90 24 -24 30 -25 114 -21 74 3 98 9 155 37
125 62 230 197 266 341 15 60 19 362 5 415 -7 28 -3 26 54 -30 189 -184 309
-385 329 -552 10 -83 22 -93 116 -93 63 0 77 4 118 31 95 63 161 169 209 335
22 74 23 97 23 359 0 307 -9 372 -74 571 l-29 88 58 -61 c32 -33 88 -106 124
-161 37 -55 74 -103 82 -106 9 -3 45 -6 80 -6 100 0 104 7 104 184 0 199 -23
284 -151 566 -32 68 -136 223 -226 336 -164 203 -413 413 -654 551 l-86 49 19
44 c36 83 99 274 129 390 83 320 166 959 189 1455 16 349 12 505 -15 641 -9
42 -86 125 -139 148 -98 43 -136 48 -293 44 -177 -6 -205 -14 -442 -129 -244
-119 -384 -213 -553 -377 l-97 -94 -4 449 c-3 396 -6 453 -21 493 -22 58 -40
77 -98 106 -44 22 -59 24 -195 24 -129 0 -156 -3 -213 -24z"/>
</g>
</svg>
